<mxfile host="Electron" agent="Mozilla/5.0 (Windows NT 10.0; Win64; x64) AppleWebKit/537.36 (KHTML, like Gecko) draw.io/24.7.17 Chrome/128.0.6613.36 Electron/32.0.1 Safari/537.36" version="24.7.17">
  <diagram name="Page-1" id="0clNlJMSC0QsLbIo3I-B">
    <mxGraphModel dx="1591" dy="786" grid="1" gridSize="10" guides="1" tooltips="1" connect="1" arrows="1" fold="1" page="1" pageScale="1" pageWidth="1100" pageHeight="850" math="0" shadow="0">
      <root>
        <mxCell id="0" />
        <mxCell id="1" parent="0" />
        <mxCell id="KO1R3DpOWFSoFMCMkhk4-2" value="&lt;font style=&quot;font-size: 18px;&quot;&gt;Electrical Architecture for ERC and FERC&lt;/font&gt;" style="text;html=1;align=center;verticalAlign=middle;whiteSpace=wrap;rounded=0;" parent="1" vertex="1">
          <mxGeometry x="250" width="600" height="30" as="geometry" />
        </mxCell>
        <mxCell id="KO1R3DpOWFSoFMCMkhk4-3" value="Battery (12V)" style="rounded=1;whiteSpace=wrap;html=1;" parent="1" vertex="1">
          <mxGeometry x="180" y="80" width="80" height="40" as="geometry" />
        </mxCell>
        <mxCell id="KO1R3DpOWFSoFMCMkhk4-8" value="Power Distribution Board" parent="0" />
        <mxCell id="KO1R3DpOWFSoFMCMkhk4-59" value="" style="whiteSpace=wrap;html=1;fillColor=none;" parent="KO1R3DpOWFSoFMCMkhk4-8" vertex="1">
          <mxGeometry x="310" y="60" width="240" height="230" as="geometry" />
        </mxCell>
        <mxCell id="KO1R3DpOWFSoFMCMkhk4-9" value="" style="endArrow=classic;html=1;rounded=0;exitX=1;exitY=0.5;exitDx=0;exitDy=0;entryX=0;entryY=0.5;entryDx=0;entryDy=0;" parent="KO1R3DpOWFSoFMCMkhk4-8" target="KO1R3DpOWFSoFMCMkhk4-10" edge="1">
          <mxGeometry width="50" height="50" relative="1" as="geometry">
            <mxPoint x="260" y="100" as="sourcePoint" />
            <mxPoint x="300" y="100" as="targetPoint" />
          </mxGeometry>
        </mxCell>
        <mxCell id="KO1R3DpOWFSoFMCMkhk4-10" value="LED" style="rounded=1;whiteSpace=wrap;html=1;" parent="KO1R3DpOWFSoFMCMkhk4-8" vertex="1">
          <mxGeometry x="340" y="80" width="80" height="40" as="geometry" />
        </mxCell>
        <mxCell id="KO1R3DpOWFSoFMCMkhk4-11" value="" style="endArrow=classic;html=1;rounded=0;exitX=0.5;exitY=0;exitDx=0;exitDy=0;" parent="KO1R3DpOWFSoFMCMkhk4-8" source="KO1R3DpOWFSoFMCMkhk4-12" edge="1">
          <mxGeometry width="50" height="50" relative="1" as="geometry">
            <mxPoint x="280" y="120" as="sourcePoint" />
            <mxPoint x="280" y="100" as="targetPoint" />
            <Array as="points" />
          </mxGeometry>
        </mxCell>
        <mxCell id="KO1R3DpOWFSoFMCMkhk4-12" value="Fuse" style="rounded=1;whiteSpace=wrap;html=1;" parent="KO1R3DpOWFSoFMCMkhk4-8" vertex="1">
          <mxGeometry x="260" y="130" width="40" height="60" as="geometry" />
        </mxCell>
        <mxCell id="KO1R3DpOWFSoFMCMkhk4-83" style="edgeStyle=none;rounded=0;orthogonalLoop=1;jettySize=auto;html=1;entryX=0;entryY=0.5;entryDx=0;entryDy=0;exitX=1;exitY=0.5;exitDx=0;exitDy=0;" parent="KO1R3DpOWFSoFMCMkhk4-8" source="KO1R3DpOWFSoFMCMkhk4-13" target="KO1R3DpOWFSoFMCMkhk4-70" edge="1">
          <mxGeometry relative="1" as="geometry">
            <mxPoint x="430" y="160" as="sourcePoint" />
            <Array as="points" />
          </mxGeometry>
        </mxCell>
        <mxCell id="KO1R3DpOWFSoFMCMkhk4-13" value="Voltage Regulator" style="rounded=1;whiteSpace=wrap;html=1;" parent="KO1R3DpOWFSoFMCMkhk4-8" vertex="1">
          <mxGeometry x="340" y="130" width="80" height="40" as="geometry" />
        </mxCell>
        <mxCell id="KO1R3DpOWFSoFMCMkhk4-14" value="ESC" style="rounded=1;whiteSpace=wrap;html=1;" parent="KO1R3DpOWFSoFMCMkhk4-8" vertex="1">
          <mxGeometry x="340" y="180" width="80" height="40" as="geometry" />
        </mxCell>
        <mxCell id="KO1R3DpOWFSoFMCMkhk4-15" value="Motor" style="rounded=1;whiteSpace=wrap;html=1;" parent="KO1R3DpOWFSoFMCMkhk4-8" vertex="1">
          <mxGeometry x="340" y="230" width="80" height="40" as="geometry" />
        </mxCell>
        <mxCell id="KO1R3DpOWFSoFMCMkhk4-16" value="" style="endArrow=classic;html=1;rounded=0;entryX=0;entryY=0.5;entryDx=0;entryDy=0;" parent="KO1R3DpOWFSoFMCMkhk4-8" target="KO1R3DpOWFSoFMCMkhk4-13" edge="1">
          <mxGeometry width="50" height="50" relative="1" as="geometry">
            <mxPoint x="320" y="100" as="sourcePoint" />
            <mxPoint x="330" y="140" as="targetPoint" />
            <Array as="points">
              <mxPoint x="320" y="150" />
            </Array>
          </mxGeometry>
        </mxCell>
        <mxCell id="KO1R3DpOWFSoFMCMkhk4-17" value="" style="endArrow=classic;html=1;rounded=0;entryX=0;entryY=0.5;entryDx=0;entryDy=0;" parent="KO1R3DpOWFSoFMCMkhk4-8" target="KO1R3DpOWFSoFMCMkhk4-14" edge="1">
          <mxGeometry width="50" height="50" relative="1" as="geometry">
            <mxPoint x="320" y="140" as="sourcePoint" />
            <mxPoint x="330" y="200" as="targetPoint" />
            <Array as="points">
              <mxPoint x="320" y="200" />
            </Array>
          </mxGeometry>
        </mxCell>
        <mxCell id="KO1R3DpOWFSoFMCMkhk4-18" value="" style="endArrow=classic;html=1;rounded=0;entryX=0;entryY=0.5;entryDx=0;entryDy=0;" parent="KO1R3DpOWFSoFMCMkhk4-8" target="KO1R3DpOWFSoFMCMkhk4-15" edge="1">
          <mxGeometry width="50" height="50" relative="1" as="geometry">
            <mxPoint x="320" y="200" as="sourcePoint" />
            <mxPoint x="330" y="250" as="targetPoint" />
            <Array as="points">
              <mxPoint x="320" y="250" />
            </Array>
          </mxGeometry>
        </mxCell>
        <mxCell id="KO1R3DpOWFSoFMCMkhk4-19" value="" style="endArrow=classic;html=1;rounded=0;exitX=1;exitY=0.75;exitDx=0;exitDy=0;entryX=1;entryY=0.5;entryDx=0;entryDy=0;" parent="KO1R3DpOWFSoFMCMkhk4-8" source="KO1R3DpOWFSoFMCMkhk4-14" target="KO1R3DpOWFSoFMCMkhk4-15" edge="1">
          <mxGeometry width="50" height="50" relative="1" as="geometry">
            <mxPoint x="440" y="200" as="sourcePoint" />
            <mxPoint x="430" y="250" as="targetPoint" />
            <Array as="points">
              <mxPoint x="440" y="210" />
              <mxPoint x="440" y="250" />
            </Array>
          </mxGeometry>
        </mxCell>
        <mxCell id="KO1R3DpOWFSoFMCMkhk4-60" value="&lt;font style=&quot;font-size: 10px;&quot;&gt;Power&amp;nbsp;&lt;/font&gt;&lt;span style=&quot;font-size: 10px; background-color: initial;&quot;&gt;Distribution&amp;nbsp;&lt;/span&gt;&lt;span style=&quot;font-size: 10px; background-color: initial;&quot;&gt;Board&lt;/span&gt;" style="text;html=1;align=center;verticalAlign=middle;resizable=0;points=[];autosize=1;strokeColor=none;fillColor=none;" parent="KO1R3DpOWFSoFMCMkhk4-8" vertex="1">
          <mxGeometry x="420" y="60" width="130" height="30" as="geometry" />
        </mxCell>
        <mxCell id="KO1R3DpOWFSoFMCMkhk4-70" value="Buck (5V)" style="rounded=1;whiteSpace=wrap;html=1;" parent="KO1R3DpOWFSoFMCMkhk4-8" vertex="1">
          <mxGeometry x="460" y="130" width="80" height="40" as="geometry" />
        </mxCell>
        <mxCell id="KO1R3DpOWFSoFMCMkhk4-25" value="Microcontroller Board" parent="0" />
        <mxCell id="KO1R3DpOWFSoFMCMkhk4-64" value="" style="whiteSpace=wrap;html=1;fillColor=none;" parent="KO1R3DpOWFSoFMCMkhk4-25" vertex="1">
          <mxGeometry x="310" y="310" width="410" height="220" as="geometry" />
        </mxCell>
        <mxCell id="KO1R3DpOWFSoFMCMkhk4-27" value="STM32H7" style="rounded=1;whiteSpace=wrap;html=1;" parent="KO1R3DpOWFSoFMCMkhk4-25" vertex="1">
          <mxGeometry x="420" y="340" width="120" height="80" as="geometry" />
        </mxCell>
        <mxCell id="KO1R3DpOWFSoFMCMkhk4-28" value="" style="endArrow=classic;html=1;rounded=0;exitX=1;exitY=0.5;exitDx=0;exitDy=0;" parent="KO1R3DpOWFSoFMCMkhk4-25" source="KO1R3DpOWFSoFMCMkhk4-14" edge="1">
          <mxGeometry width="50" height="50" relative="1" as="geometry">
            <mxPoint x="560" y="270" as="sourcePoint" />
            <mxPoint x="460" y="340" as="targetPoint" />
            <Array as="points">
              <mxPoint x="460" y="200" />
            </Array>
          </mxGeometry>
        </mxCell>
        <mxCell id="KO1R3DpOWFSoFMCMkhk4-30" value="" style="edgeStyle=none;orthogonalLoop=1;jettySize=auto;html=1;rounded=0;exitX=0.5;exitY=1;exitDx=0;exitDy=0;entryX=0.667;entryY=0;entryDx=0;entryDy=0;entryPerimeter=0;" parent="KO1R3DpOWFSoFMCMkhk4-25" target="KO1R3DpOWFSoFMCMkhk4-27" edge="1" source="KO1R3DpOWFSoFMCMkhk4-70">
          <mxGeometry width="100" relative="1" as="geometry">
            <mxPoint x="540" y="220" as="sourcePoint" />
            <mxPoint x="500" y="350" as="targetPoint" />
            <Array as="points">
              <mxPoint x="500" y="240" />
            </Array>
          </mxGeometry>
        </mxCell>
        <mxCell id="KO1R3DpOWFSoFMCMkhk4-43" value="" style="edgeStyle=orthogonalEdgeStyle;rounded=0;orthogonalLoop=1;jettySize=auto;html=1;entryX=0;entryY=0.75;entryDx=0;entryDy=0;exitX=0.5;exitY=0;exitDx=0;exitDy=0;" parent="KO1R3DpOWFSoFMCMkhk4-25" source="KO1R3DpOWFSoFMCMkhk4-44" target="KO1R3DpOWFSoFMCMkhk4-27" edge="1">
          <mxGeometry relative="1" as="geometry">
            <mxPoint x="420" y="400" as="targetPoint" />
            <mxPoint x="170" y="440" as="sourcePoint" />
            <Array as="points">
              <mxPoint x="380" y="400" />
            </Array>
          </mxGeometry>
        </mxCell>
        <mxCell id="KO1R3DpOWFSoFMCMkhk4-44" value="Receiver" style="rounded=1;whiteSpace=wrap;html=1;" parent="KO1R3DpOWFSoFMCMkhk4-25" vertex="1">
          <mxGeometry x="340" y="440" width="80" height="40" as="geometry" />
        </mxCell>
        <mxCell id="KO1R3DpOWFSoFMCMkhk4-45" value="Transmitter" style="rounded=1;whiteSpace=wrap;html=1;" parent="KO1R3DpOWFSoFMCMkhk4-25" vertex="1">
          <mxGeometry x="470" y="440" width="80" height="40" as="geometry" />
        </mxCell>
        <mxCell id="KO1R3DpOWFSoFMCMkhk4-46" value="" style="edgeStyle=none;orthogonalLoop=1;jettySize=auto;html=1;rounded=0;exitX=0.75;exitY=1;exitDx=0;exitDy=0;entryX=0.5;entryY=0;entryDx=0;entryDy=0;" parent="KO1R3DpOWFSoFMCMkhk4-25" source="KO1R3DpOWFSoFMCMkhk4-27" target="KO1R3DpOWFSoFMCMkhk4-45" edge="1">
          <mxGeometry width="100" relative="1" as="geometry">
            <mxPoint x="550" y="430" as="sourcePoint" />
            <mxPoint x="520" y="430" as="targetPoint" />
            <Array as="points">
              <mxPoint x="510" y="430" />
            </Array>
          </mxGeometry>
        </mxCell>
        <mxCell id="KO1R3DpOWFSoFMCMkhk4-47" value="Servo" style="rounded=1;whiteSpace=wrap;html=1;" parent="KO1R3DpOWFSoFMCMkhk4-25" vertex="1">
          <mxGeometry x="580" y="440" width="80" height="40" as="geometry" />
        </mxCell>
        <mxCell id="KO1R3DpOWFSoFMCMkhk4-48" value="" style="edgeStyle=none;orthogonalLoop=1;jettySize=auto;html=1;rounded=0;exitX=1;exitY=0.75;exitDx=0;exitDy=0;entryX=0.5;entryY=0;entryDx=0;entryDy=0;" parent="KO1R3DpOWFSoFMCMkhk4-25" source="KO1R3DpOWFSoFMCMkhk4-27" target="KO1R3DpOWFSoFMCMkhk4-47" edge="1">
          <mxGeometry width="100" relative="1" as="geometry">
            <mxPoint x="570" y="380" as="sourcePoint" />
            <mxPoint x="670" y="380" as="targetPoint" />
            <Array as="points">
              <mxPoint x="620" y="400" />
            </Array>
          </mxGeometry>
        </mxCell>
        <mxCell id="KO1R3DpOWFSoFMCMkhk4-49" value="" style="edgeStyle=none;orthogonalLoop=1;jettySize=auto;html=1;rounded=0;exitX=1;exitY=0.75;exitDx=0;exitDy=0;" parent="KO1R3DpOWFSoFMCMkhk4-25" edge="1">
          <mxGeometry width="100" relative="1" as="geometry">
            <mxPoint x="540" y="359.88" as="sourcePoint" />
            <mxPoint x="580" y="359.88" as="targetPoint" />
            <Array as="points" />
          </mxGeometry>
        </mxCell>
        <mxCell id="KO1R3DpOWFSoFMCMkhk4-51" value="Relay" style="rounded=1;whiteSpace=wrap;html=1;" parent="KO1R3DpOWFSoFMCMkhk4-25" vertex="1">
          <mxGeometry x="580" y="340" width="80" height="40" as="geometry" />
        </mxCell>
        <mxCell id="KO1R3DpOWFSoFMCMkhk4-65" value="Microcontroller Board" style="text;html=1;align=center;verticalAlign=middle;resizable=0;points=[];autosize=1;strokeColor=none;fillColor=none;" parent="KO1R3DpOWFSoFMCMkhk4-25" vertex="1">
          <mxGeometry x="580" y="310" width="140" height="30" as="geometry" />
        </mxCell>
        <mxCell id="KO1R3DpOWFSoFMCMkhk4-72" style="edgeStyle=none;rounded=0;orthogonalLoop=1;jettySize=auto;html=1;entryX=1;entryY=0.5;entryDx=0;entryDy=0;" parent="KO1R3DpOWFSoFMCMkhk4-25" target="KO1R3DpOWFSoFMCMkhk4-54" edge="1">
          <mxGeometry relative="1" as="geometry">
            <mxPoint x="740" y="650" as="targetPoint" />
            <mxPoint x="579.9999999999998" y="649.9999999999999" as="sourcePoint" />
            <Array as="points" />
          </mxGeometry>
        </mxCell>
        <mxCell id="KO1R3DpOWFSoFMCMkhk4-52" value="Fuel System Board" parent="0" />
        <mxCell id="KO1R3DpOWFSoFMCMkhk4-66" value="" style="whiteSpace=wrap;html=1;fillColor=none;" parent="KO1R3DpOWFSoFMCMkhk4-52" vertex="1">
          <mxGeometry x="470" y="550" width="210" height="130" as="geometry" />
        </mxCell>
        <mxCell id="KO1R3DpOWFSoFMCMkhk4-53" value="LED" style="rounded=1;whiteSpace=wrap;html=1;" parent="KO1R3DpOWFSoFMCMkhk4-52" vertex="1">
          <mxGeometry x="480" y="580" width="80" height="40" as="geometry" />
        </mxCell>
        <mxCell id="KO1R3DpOWFSoFMCMkhk4-54" value="Fuel Pump" style="rounded=1;whiteSpace=wrap;html=1;" parent="KO1R3DpOWFSoFMCMkhk4-52" vertex="1">
          <mxGeometry x="480" y="630" width="80" height="40" as="geometry" />
        </mxCell>
        <mxCell id="KO1R3DpOWFSoFMCMkhk4-55" value="" style="edgeStyle=none;orthogonalLoop=1;jettySize=auto;html=1;rounded=0;exitX=1;exitY=0.5;exitDx=0;exitDy=0;entryX=1;entryY=0.5;entryDx=0;entryDy=0;" parent="KO1R3DpOWFSoFMCMkhk4-52" source="KO1R3DpOWFSoFMCMkhk4-51" target="KO1R3DpOWFSoFMCMkhk4-77" edge="1">
          <mxGeometry width="100" relative="1" as="geometry">
            <mxPoint x="650" y="490" as="sourcePoint" />
            <mxPoint x="700" y="650" as="targetPoint" />
            <Array as="points">
              <mxPoint x="740" y="360" />
              <mxPoint x="740" y="650" />
            </Array>
          </mxGeometry>
        </mxCell>
        <mxCell id="KO1R3DpOWFSoFMCMkhk4-56" value="" style="edgeStyle=none;orthogonalLoop=1;jettySize=auto;html=1;rounded=0;exitX=1;exitY=0.5;exitDx=0;exitDy=0;entryX=1;entryY=0.5;entryDx=0;entryDy=0;" parent="KO1R3DpOWFSoFMCMkhk4-52" target="KO1R3DpOWFSoFMCMkhk4-73" edge="1">
          <mxGeometry width="100" relative="1" as="geometry">
            <mxPoint x="660" y="370" as="sourcePoint" />
            <mxPoint x="720" y="600" as="targetPoint" />
            <Array as="points">
              <mxPoint x="690" y="370" />
              <mxPoint x="690" y="470" />
              <mxPoint x="690" y="600" />
            </Array>
          </mxGeometry>
        </mxCell>
        <mxCell id="KO1R3DpOWFSoFMCMkhk4-57" value="Cooling System" style="rounded=1;whiteSpace=wrap;html=1;" parent="KO1R3DpOWFSoFMCMkhk4-52" vertex="1">
          <mxGeometry x="770" y="480" width="120" height="60" as="geometry" />
        </mxCell>
        <mxCell id="KO1R3DpOWFSoFMCMkhk4-58" value="" style="edgeStyle=none;orthogonalLoop=1;jettySize=auto;html=1;rounded=0;exitX=0.5;exitY=1;exitDx=0;exitDy=0;entryX=0;entryY=0.5;entryDx=0;entryDy=0;" parent="KO1R3DpOWFSoFMCMkhk4-52" source="KO1R3DpOWFSoFMCMkhk4-45" target="KO1R3DpOWFSoFMCMkhk4-57" edge="1">
          <mxGeometry width="100" relative="1" as="geometry">
            <mxPoint x="510" y="490" as="sourcePoint" />
            <mxPoint x="770" y="510" as="targetPoint" />
            <Array as="points">
              <mxPoint x="510" y="510" />
            </Array>
          </mxGeometry>
        </mxCell>
        <mxCell id="KO1R3DpOWFSoFMCMkhk4-67" value="Fuel System Board" style="text;html=1;align=center;verticalAlign=middle;resizable=0;points=[];autosize=1;strokeColor=none;fillColor=none;" parent="KO1R3DpOWFSoFMCMkhk4-52" vertex="1">
          <mxGeometry x="550" y="550" width="130" height="30" as="geometry" />
        </mxCell>
        <mxCell id="KO1R3DpOWFSoFMCMkhk4-75" value="" style="edgeStyle=none;rounded=0;orthogonalLoop=1;jettySize=auto;html=1;" parent="KO1R3DpOWFSoFMCMkhk4-52" source="KO1R3DpOWFSoFMCMkhk4-73" target="KO1R3DpOWFSoFMCMkhk4-53" edge="1">
          <mxGeometry relative="1" as="geometry" />
        </mxCell>
        <mxCell id="KO1R3DpOWFSoFMCMkhk4-73" value="Fuel Level Sensor" style="rounded=1;whiteSpace=wrap;html=1;" parent="KO1R3DpOWFSoFMCMkhk4-52" vertex="1">
          <mxGeometry x="580" y="580" width="80" height="40" as="geometry" />
        </mxCell>
        <mxCell id="KO1R3DpOWFSoFMCMkhk4-77" value="Buck (12V)" style="rounded=1;whiteSpace=wrap;html=1;" parent="KO1R3DpOWFSoFMCMkhk4-52" vertex="1">
          <mxGeometry x="580" y="630" width="80" height="40" as="geometry" />
        </mxCell>
        <mxCell id="KO1R3DpOWFSoFMCMkhk4-79" value="" style="edgeStyle=none;rounded=0;orthogonalLoop=1;jettySize=auto;html=1;" parent="KO1R3DpOWFSoFMCMkhk4-52" source="KO1R3DpOWFSoFMCMkhk4-78" target="KO1R3DpOWFSoFMCMkhk4-44" edge="1">
          <mxGeometry relative="1" as="geometry" />
        </mxCell>
        <mxCell id="KO1R3DpOWFSoFMCMkhk4-78" value="Transmitter" style="rounded=1;whiteSpace=wrap;html=1;" parent="KO1R3DpOWFSoFMCMkhk4-52" vertex="1">
          <mxGeometry x="180" y="440" width="80" height="40" as="geometry" />
        </mxCell>
      </root>
    </mxGraphModel>
  </diagram>
</mxfile>
